# xmcd
#
# Track frame offsets:
#	150
#	22139
#	40844
#	61661
#	77823
#	91824
#	117263
#	137704
#
# Disc length: 2428 seconds
#
# Revision: 13
# Processed by: cddbd v1.5.2PL0 Copyright (c) Steve Scherf et al.
# Submitted via: Jack! The Knife 20 Magnifico
#
DISCID=60097a08
DTITLE=Bulldozer - The Final Separation
DYEAR=1986
DGENRE=Trash Metal
TTITLE0=The Final Separation
TTITLE1=Ride Hard - Die Fast
TTITLE2=The Cave
TTITLE3=Sex Symbols' Bullshit
TTITLE4=''Don'' Andras
TTITLE5=Never Relax!
TTITLE6=Don't Trust The ''Saint''
TTITLE7=The Death Of Gods
EXTD=Bulldozer
EXTT0=Contini, Panigada
EXTT1=Contini, Panigada
EXTT2=Contini, Panigada
EXTT3=Contini, Panigada
EXTT4=Contini, Panigada
EXTT5=Contini, Panigada
EXTT6=Contini, Panigada
EXTT7=Contini, Panigada
PLAYORDER=
